<?xml version="1.0" encoding="UTF-8" standalone="no"?>
<!-- Created with Inkscape (http://www.inkscape.org/) -->

<svg
   xmlns:dc="http://purl.org/dc/elements/1.1/"
   xmlns:cc="http://creativecommons.org/ns#"
   xmlns:rdf="http://www.w3.org/1999/02/22-rdf-syntax-ns#"
   xmlns:svg="http://www.w3.org/2000/svg"
   xmlns="http://www.w3.org/2000/svg"
   xmlns:xlink="http://www.w3.org/1999/xlink"
   xmlns:sodipodi="http://sodipodi.sourceforge.net/DTD/sodipodi-0.dtd"
   xmlns:inkscape="http://www.inkscape.org/namespaces/inkscape"
   id="svg2985"
   version="1.1"
   inkscape:version="0.48.2 r9819"
   width="300"
   height="300"
   sodipodi:docname="floss.svg"
   inkscape:export-filename="C:\Users\Trev\Projects\mm-ripoff\application\assets\img\floss.png"
   inkscape:export-xdpi="67.5"
   inkscape:export-ydpi="67.5">
  <metadata
     id="metadata2991">
    <rdf:RDF>
      <cc:Work
         rdf:about="">
        <dc:format>image/svg+xml</dc:format>
        <dc:type
           rdf:resource="http://purl.org/dc/dcmitype/StillImage" />
        <dc:title />
      </cc:Work>
    </rdf:RDF>
  </metadata>
  <defs
     id="defs2989">
    <linearGradient
       id="linearGradient3827">
      <stop
         style="stop-color:#15dc28;stop-opacity:1;"
         offset="0"
         id="stop3829" />
      <stop
         id="stop3835"
         offset="0.6701389"
         style="stop-color:#74e47e;stop-opacity:1;" />
      <stop
         style="stop-color:#d4ecd5;stop-opacity:1;"
         offset="1"
         id="stop3831" />
    </linearGradient>
    <linearGradient
       id="linearGradient3799">
      <stop
         style="stop-color:#000000;stop-opacity:1;"
         offset="0"
         id="stop3801" />
      <stop
         id="stop3807"
         offset="0.69097221"
         style="stop-color:#000000;stop-opacity:0.49803922;" />
      <stop
         style="stop-color:#000000;stop-opacity:0;"
         offset="0.85514325"
         id="stop3809" />
      <stop
         style="stop-color:#000000;stop-opacity:0;"
         offset="1"
         id="stop3803" />
    </linearGradient>
    <linearGradient
       inkscape:collect="always"
       xlink:href="#linearGradient3827"
       id="linearGradient3833"
       x1="197.94304"
       y1="178.263"
       x2="199.26645"
       y2="210.83606"
       gradientUnits="userSpaceOnUse"
       gradientTransform="translate(-4.4787954,0.81432643)" />
    <filter
       inkscape:collect="always"
       id="filter3821">
      <feGaussianBlur
         inkscape:collect="always"
         stdDeviation="3.2377929"
         id="feGaussianBlur3823" />
    </filter>
    <clipPath
       clipPathUnits="userSpaceOnUse"
       id="clipPath3827">
      <path
         style="fill:none;stroke:#fc0000;stroke-width:3;stroke-linecap:butt;stroke-linejoin:miter;stroke-miterlimit:4;stroke-opacity:1;stroke-dasharray:none"
         d="M 52.759117,269.12187 C 48.172641,251.80335 30.783634,5.5597248 35.12476,-46.065259 35.418871,-49.562853 38.045032,-51.590384 43.325896,-52.469091 130.59859,-66.990788 315.54702,-55.278311 332.8215,-52.399232 338.28824,-52.064924 340.49673,-49.382405 341.29008,-45.794815 349.81954,-19.81325 333.33385,254.9661 332.2866,267.06772 332.03807,269.93967 323.27447,276.813 319.77532,276.96737 284.03528,278.54413 102.20729,279.84644 61.612284,276.96737 56.070058,274.16027 54.676581,272.96683 52.759117,269.12187 z"
         id="path3829"
         inkscape:connector-curvature="0"
         sodipodi:nodetypes="cssccsscc" />
    </clipPath>
    <filter
       inkscape:collect="always"
       id="filter3849"
       x="-0.051452799"
       width="1.1029056"
       y="-0.22861139"
       height="1.4572228">
      <feGaussianBlur
         inkscape:collect="always"
         stdDeviation="6.6071111"
         id="feGaussianBlur3851" />
    </filter>
    <clipPath
       clipPathUnits="userSpaceOnUse"
       id="clipPath3883">
      <path
         id="path3885"
         style="fill:none;stroke:#fc0000;stroke-width:3;stroke-linecap:butt;stroke-linejoin:miter;stroke-miterlimit:4;stroke-opacity:1;stroke-dasharray:none"
         d="M 111.99616,-28.358925 C 116.60269,-26.775432 118.46688,-25.760539 119.48176,-21.880999 121.24785,-15.129838 123.65643,13.675623 127.25528,21.017274 131.42994,31.669865 134.74089,36.852207 140.78695,37.715931 156.33397,39.443378 236.94818,40.595009 248.17658,39.443378 254.51056,39.15547 257.42162,34.254688 262.57198,22.744722 264.74355,17.891714 266.17083,-9.357006 267.1785,-19.00192 267.89827,-22.744722 270.31428,-25.214353 273.80039,-25.191938 291.13813,-25.953671 343.21065,-24.644475 343.21065,-24.644475 346.58587,41.586813 333.21875,256.29614 332.2866,267.06772 332.03807,269.93967 323.27447,276.813 319.77532,276.96737 284.03528,278.54413 102.20729,279.84644 61.612284,276.96737 56.070058,274.16027 54.676581,272.96683 52.759117,269.12187 48.565465,253.28665 33.236534,46.133074 34.598955,-28.783598 34.598955,-28.783598 105.08638,-30.662188 111.99616,-28.358925 z"
         inkscape:connector-curvature="0"
         sodipodi:nodetypes="cscccscccsscccc" />
    </clipPath>
    <filter
       inkscape:collect="always"
       id="filter3891">
      <feGaussianBlur
         inkscape:collect="always"
         stdDeviation="2.8316191"
         id="feGaussianBlur3893" />
    </filter>
    <filter
       inkscape:collect="always"
       id="filter3895">
      <feGaussianBlur
         inkscape:collect="always"
         stdDeviation="2.4283447"
         id="feGaussianBlur3897" />
    </filter>
  </defs>
  <sodipodi:namedview
     pagecolor="#ffffff"
     bordercolor="#666666"
     borderopacity="1"
     objecttolerance="10"
     gridtolerance="10"
     guidetolerance="10"
     inkscape:pageopacity="0"
     inkscape:pageshadow="2"
     inkscape:window-width="1600"
     inkscape:window-height="838"
     id="namedview2987"
     showgrid="false"
     inkscape:zoom="2.4560176"
     inkscape:cx="194.29826"
     inkscape:cy="292.43222"
     inkscape:window-x="-8"
     inkscape:window-y="-8"
     inkscape:window-maximized="1"
     inkscape:current-layer="svg2985" />
  <image
     width="400"
     height="400"
     xlink:href="file:///C:/Users/Trev/Projects/mm-ripoff/application/assets/reference-images/floss.jpg"
     id="image2993"
     x="0"
     y="-100"
     style="opacity:0" />
  <path
     style="fill:#f9f9f9;fill-opacity:1;stroke:#000000;stroke-width:3;stroke-linecap:butt;stroke-linejoin:miter;stroke-miterlimit:4;stroke-opacity:1;stroke-dasharray:none"
     d="M 52.759117,269.12187 C 48.172641,251.80335 30.783634,5.5597248 35.12476,-46.065259 35.418871,-49.562853 38.045032,-51.590384 43.325896,-52.469091 130.59859,-66.990788 315.54702,-55.278311 332.8215,-52.399232 338.28824,-52.064924 340.49673,-49.382405 341.29008,-45.794815 349.81954,-19.81325 333.33385,254.9661 332.2866,267.06772 332.03807,269.93967 323.27447,276.813 319.77532,276.96737 284.03528,278.54413 102.20729,279.84644 61.612284,276.96737 56.070058,274.16027 54.676581,272.96683 52.759117,269.12187 z"
     id="path2995"
     inkscape:connector-curvature="0"
     sodipodi:nodetypes="cssccsscc" />
  <path
     style="fill:none;stroke:#000000;stroke-width:2;stroke-linecap:butt;stroke-linejoin:miter;stroke-miterlimit:4;stroke-opacity:1;stroke-dasharray:none"
     d="M 34.781462,-28.622134 C 34.781462,-28.622134 105.08638,-30.662188 111.99616,-28.358925 116.60269,-26.775432 118.46688,-25.760539 119.48176,-21.880999 121.24785,-15.129838 123.65643,13.675623 127.25528,21.017274 131.42994,31.669865 134.74089,36.852207 140.78695,37.715931 156.33397,39.443378 236.94818,40.595009 248.17658,39.443378 254.51056,39.15547 257.42162,34.254688 262.57198,22.744722 264.74355,17.891714 266.17083,-9.357006 267.1785,-19.00192 267.89827,-22.744722 270.31428,-25.214353 273.80039,-25.191938 291.13813,-25.953671 342.96813,-24.978126 342.96813,-24.978126"
     id="path2997"
     inkscape:connector-curvature="0"
     sodipodi:nodetypes="ccscccsccc" />
  <text
     xml:space="preserve"
     style="font-size:13px;font-style:normal;font-variant:normal;font-weight:normal;font-stretch:normal;line-height:125%;letter-spacing:0px;word-spacing:0px;fill:#000000;fill-opacity:1;stroke:none;font-family:Kartika;-inkscape-font-specification:Kartika"
     x="141.28564"
     y="229.15361"
     id="text3815"
     sodipodi:linespacing="125%"><tspan
       sodipodi:role="line"
       id="tspan3817"
       x="141.28564"
       y="229.15361"
       style="font-size:13px;font-style:normal;font-variant:normal;font-weight:normal;font-stretch:normal;font-family:Kartika;-inkscape-font-specification:Kartika">DENTAL FLOSS</tspan></text>
  <text
     xml:space="preserve"
     style="font-size:11px;font-style:normal;font-weight:normal;line-height:125%;letter-spacing:0px;word-spacing:0px;fill:#000000;fill-opacity:1;stroke:none;font-family:Sans"
     x="172.63719"
     y="248.29027"
     id="text3819"
     sodipodi:linespacing="125%"><tspan
       sodipodi:role="line"
       id="tspan3821"
       x="172.63719"
       y="248.29027"
       style="font-style:normal;font-variant:normal;font-weight:normal;font-stretch:normal;font-family:Myriad Pro Cond;-inkscape-font-specification:Myriad Pro Cond">10YD (3.9m)</tspan></text>
  <text
     xml:space="preserve"
     style="font-size:18px;font-style:normal;font-weight:normal;line-height:125%;letter-spacing:0px;word-spacing:0px;fill:url(#linearGradient3833);fill-opacity:1;stroke:none;font-family:Sans"
     x="120.92747"
     y="209.20262"
     id="text3823"
     sodipodi:linespacing="125%"><tspan
       sodipodi:role="line"
       id="tspan3825"
       x="120.92747"
       y="209.20262"
       style="font-size:18px;font-style:normal;font-variant:normal;font-weight:bold;font-stretch:normal;fill:url(#linearGradient3833);fill-opacity:1;font-family:Meiryo;-inkscape-font-specification:Meiryo Bold">&quot;MINT&quot; WAXED</tspan></text>
  <flowRoot
     xml:space="preserve"
     id="flowRoot3841"
     style="font-size:16px;font-style:normal;font-weight:normal;line-height:125%;letter-spacing:0px;word-spacing:0px;fill:#000000;fill-opacity:1;stroke:none;font-family:Sans"
     transform="translate(0.81432643,8.5504275)"><flowRegion
       id="flowRegion3843"><rect
         id="rect3845"
         width="160.82947"
         height="68.403419"
         x="114.0057"
         y="62.216682" /></flowRegion><flowPara
       id="flowPara3847"
       style="font-size:32px;font-style:normal;font-variant:normal;font-weight:bold;font-stretch:normal;text-align:center;text-anchor:middle;font-family:Moire;-inkscape-font-specification:Moire Bold">TEEF</flowPara><flowPara
       id="flowPara3849"
       style="font-size:32px;font-style:normal;font-variant:normal;font-weight:bold;font-stretch:normal;text-align:center;text-anchor:middle;font-family:Moire;-inkscape-font-specification:Moire Bold">STRANG</flowPara></flowRoot>  <path
     style="fill:none;stroke:#ba5211;stroke-width:1px;stroke-linecap:butt;stroke-linejoin:miter;stroke-opacity:1"
     d="M 202.76728,177.03671 C 201.95295,177.30815 201.16224,177.66483 200.3243,177.85104 199.92683,177.93936 199.50997,177.85104 199.10281,177.85104 198.15276,177.98676 197.18371,178.02544 196.25267,178.2582 195.54361,178.43546 194.93354,178.92919 194.21685,179.07253 193.06845,179.30221 188.33102,178.6784 188.1094,178.66536 187.161,178.60957 186.20931,178.66536 185.25926,178.66536 183.76633,178.66536 182.27186,178.59757 180.78047,178.66536 179.28292,178.73343 177.7998,179.01902 176.30167,179.07253 173.99588,179.15488 171.68596,178.99814 169.3799,179.07253 155.25903,179.52804 168.34313,179.47969 161.6438,179.47969 161.58794,179.47969 158.08925,179.53465 157.97933,179.47969 157.54164,179.26085 157.22836,178.7998 156.75784,178.66536 156.23584,178.51622 155.58089,178.9665 155.12918,178.66536 154.62416,178.32868 154.74405,177.4659 154.31486,177.03671 154.01138,176.73323 153.46139,176.85036 153.09337,176.62955 152.7642,176.43204 152.58614,176.04555 152.27904,175.81522 152.03626,175.63313 151.71723,175.5764 151.46472,175.40806 151.30501,175.30159 151.19327,175.13661 151.05755,175.00089 150.78611,174.86517 150.49574,174.76207 150.24323,174.59373 149.76412,174.27433 149.48239,173.71773 149.02174,173.37224 148.77895,173.19015 148.36825,173.22243 148.20741,172.96508 147.65959,172.08857 147.57427,170.96477 146.98592,170.11493 146.63038,169.60138 143.72752,167.26151 143.32145,166.0433 143.19269,165.65703 143.32145,165.22898 143.32145,164.82181 143.32145,164.27893 143.32145,163.73604 143.32145,163.19316 143.32145,162.786 143.32145,162.37883 143.32145,161.97167 143.32145,161.56451 143.17023,161.12822 143.32145,160.75018 143.46402,160.39376 143.89003,160.23076 144.13578,159.93585 144.57021,159.41454 145.05379,158.91416 145.35727,158.3072 145.6357,157.75033 145.42886,156.64275 146.17159,156.27139 146.29299,156.21069 146.46012,156.3373 146.57876,156.27139 147.69802,155.64957 148.67352,154.77213 149.83606,154.23557 149.87917,154.21567 153.79684,153.4545 153.90769,153.42124 154.8027,153.15274 158.24228,151.58003 158.79365,151.38543 160.12984,150.91383 161.47871,150.45585 162.86529,150.16394 164.06793,149.91075 165.31747,149.95882 166.52975,149.75677 167.76402,149.55106 168.95059,149.08063 170.19422,148.94245 171.40824,148.80756 172.63958,149.01864 173.85869,148.94245 174.81652,148.88258 175.75101,148.59515 176.70883,148.53528 178.60523,148.41676 180.50902,148.53528 182.40912,148.53528 182.81628,148.53528 183.22659,148.58579 183.63061,148.53528 184.31731,148.44945 184.97861,148.20454 185.66643,148.12812 186.20599,148.06817 186.76274,148.23459 187.29508,148.12812 187.48329,148.09048 187.51403,147.7586 187.70224,147.72096 188.23458,147.61449 188.78801,147.72096 189.33089,147.72096 190.0095,147.72096 190.68811,147.72096 191.36671,147.72096 191.90959,147.72096 192.45794,147.64418 192.99536,147.72096 193.42024,147.78165 193.79098,148.07489 194.21685,148.12812 194.89022,148.21229 195.57406,148.12812 196.25267,148.12812 197.7456,148.12812 199.23853,148.12812 200.73146,148.12812 201.41007,148.12812 202.09102,148.07177 202.76728,148.12812 203.72366,148.20782 204.6596,148.47542 205.61742,148.53528 206.83653,148.61148 208.07847,148.32599 209.28189,148.53528 211.2288,148.87388 213.06122,149.70026 214.98218,150.16394 229.70636,153.71805 214.96801,149.48061 224.34693,152.60692 227.82555,153.76646 226.33463,152.94745 229.23289,154.23557 229.78754,154.48208 230.37597,154.68572 230.86154,155.0499 230.97012,155.13133 230.81862,155.3283 230.86154,155.45706 231.84463,158.40631 230.74416,154.81512 231.67587,156.67855 231.68652,156.69985 231.68652,157.87874 231.67587,157.90004 231.59003,158.07171 231.44038,158.22136 231.26871,158.3072 231.14731,158.3679 230.97198,158.22832 230.86154,158.3072 221.61158,164.91431 233.55492,157.43994 226.38275,160.75018 221.07873,163.19819 225.1846,163.1016 218.23948,164.00749 216.75909,164.20058 215.24209,163.82231 213.76069,164.00749 213.03545,164.09814 212.42909,164.6262 211.72487,164.82181 209.98019,165.30645 208.20443,165.67399 206.43175,166.0433 204.94624,166.35278 203.45955,166.67684 201.95295,166.85763 197.67354,167.37116 195.87698,167.26479 191.77387,167.26479 190.0095,167.26479 188.23951,167.40549 186.48075,167.26479 184.83489,167.13312 183.24065,166.58213 181.59479,166.45047 179.83604,166.30977 178.0588,166.6102 176.30167,166.45047 173.96329,166.23789 172.13425,165.22898 169.78706,165.22898 169.65134,165.22898 170.06821,165.27938 170.19422,165.22898 170.75777,165.00356 171.27999,164.68609 171.82288,164.41465 172.80976,163.92121 173.51422,163.5408 174.67302,163.19316 176.79876,162.55544 179.37567,162.786 181.59479,162.786 183.11394,162.786 185.77269,162.62668 186.88792,162.786 187.61145,162.88936 188.25584,163.30348 188.92373,163.60032 189.47838,163.84683 189.98883,164.18923 190.55238,164.41465 190.80441,164.51546 191.17477,164.22271 191.36671,164.41465 191.46268,164.51062 191.32379,164.69306 191.36671,164.82181 191.83457,166.22539 191.77387,165.12342 191.77387,166.0433 191.77387,166.17902 191.84916,166.33754 191.77387,166.45047 191.56094,166.76987 191.2053,166.96989 190.95955,167.26479 189.95121,168.4748 190.16826,168.88576 188.92373,169.30061 188.57493,169.41687 187.65429,169.21081 187.29508,169.30061 182.22808,170.56736 184.16857,171.05823 178.74465,170.11493 177.0907,169.82729 175.52551,169.09346 173.85869,168.89345 172.10689,168.68323 170.32994,168.89345 168.56557,168.89345 166.45185,168.89345 159.91699,169.12578 157.57216,168.48628 157.20181,168.38528 157.10119,167.84363 156.75784,167.67196 156.69812,167.6421 153.54226,167.67196 153.50053,167.67196 152.82193,167.67196 152.14332,167.67196 151.46472,167.67196 151.32899,167.67196 151.19327,167.67196 151.05755,167.67196 150.92183,167.67196 150.75897,167.59052 150.65039,167.67196 150.18974,168.01744 149.88342,168.53993 149.4289,168.89345 148.65636,169.49431 147.80918,169.99286 146.98592,170.5221 145.90888,171.21448 144.72234,171.75051 143.72861,172.55791 142.53688,173.52619 141.59961,174.77371 140.47131,175.81522 139.83274,176.40467 139.17244,176.98328 138.43549,177.44387 136.47473,178.66935 137.77643,176.69397 135.99251,179.07253 135.91108,179.1811 135.89654,179.38372 135.99251,179.47969 136.08848,179.57566 136.30371,179.38372 136.39968,179.47969 136.49565,179.57566 136.30371,179.79088 136.39968,179.88685 136.49565,179.98282 136.67112,179.88685 136.80684,179.88685 137.07828,179.88685 137.34972,179.88685 137.62117,179.88685 138.16405,179.88685 138.71113,179.95419 139.24982,179.88685 139.80509,179.81744 140.33559,179.61541 140.87847,179.47969 141.96424,179.20825 143.03833,178.88485 144.13578,178.66536 147.91364,177.90979 146.76804,178.75251 151.05755,177.03671 151.79233,176.7428 152.44939,176.2752 153.09337,175.81522 153.40574,175.5921 153.54693,175.13208 153.90769,175.00089 155.24929,172.70425 157.20606,174.64016 158.79365,174.18657 161.18295,173.50391 160.04117,173.25958 161.6438,171.33642 162.03236,170.87014 162.90827,171.00767 163.27245,170.5221 163.76545,169.86476 163.67961,169.21013 163.67961,168.48628 163.67961,166.99335 163.67961,165.50042 163.67961,164.00749 163.67961,163.32888 163.67961,162.65028 163.67961,161.97167 163.67961,161.42879 163.9001,160.83911 163.67961,160.34302 163.32666,159.54888 162.48212,159.06174 162.05096,158.3072 161.91629,158.07152 162.17235,157.73566 162.05096,157.49288 161.74748,156.88591 161.13295,156.47119 160.82947,155.86422 160.70808,155.62144 160.8953,155.31323 160.82947,155.0499 160.33793,153.08373 160.63598,155.07008 160.01514,153.82841 159.95445,153.70701 160.11111,153.51721 160.01514,153.42124 159.91917,153.32527 159.7437,153.42124 159.60798,153.42124 159.33654,153.42124 159.0651,153.42124 158.79365,153.42124 157.91182,153.42124 153.92936,153.30429 153.50053,153.42124 152.84584,153.5998 152.50728,154.40446 151.87188,154.64273 150.29999,155.23219 148.64415,155.6024 146.98592,155.86422 137.26177,157.39961 151.05064,154.17888 141.28564,156.27139 132.77761,158.09453 144.69223,155.92869 135.17819,158.3072 134.65151,158.43887 134.0891,158.24725 133.54953,158.3072 132.86172,158.38363 132.19635,158.60059 131.51372,158.71436 131.37984,158.73668 131.24228,158.71436 131.10655,158.71436 130.56367,158.71436 130.02079,158.71436 129.4779,158.71436 129.20646,158.71436 128.85551,158.9063 128.66358,158.71436 128.36009,158.41088 128.41581,157.89137 128.25641,157.49288 128.1437,157.2111 128.01759,156.93106 127.84925,156.67855 127.74278,156.51885 127.54855,156.43109 127.44209,156.27139 127.27374,156.01887 127.17064,155.7285 127.03492,155.45706 126.8992,155.18562 126.70136,154.93715 126.62776,154.64273 126.56193,154.3794 126.62776,154.09985 126.62776,153.82841 126.62776,153.55696 126.50637,153.25687 126.62776,153.01408 126.79943,152.67073 127.17064,152.4712 127.44209,152.19975 127.57781,152.06403 127.66716,151.85329 127.84925,151.79259 128.10676,151.70675 128.39213,151.79259 128.66358,151.79259 128.93502,151.79259 129.20646,151.79259 129.4779,151.79259 130.42795,151.79259 131.378,151.79259 132.32804,151.79259 134.6353,151.79259 136.94256,151.79259 139.24982,151.79259 141.14991,151.79259 143.08691,151.41995 144.9501,151.79259 147.22427,152.24742 149.23697,153.5907 151.46472,154.23557 154.40597,155.08699 157.44705,155.54768 160.42231,156.27139 162.46957,156.76937 164.53092,157.23376 166.52975,157.90004 168.20359,158.45798 169.76894,159.30248 171.41571,159.93585 173.29887,160.66014 175.23054,161.2534 177.116,161.97167 178.0819,162.33963 178.97229,162.9092 179.96614,163.19316 180.88891,163.45681 181.89041,163.34781 182.81628,163.60032 183.40186,163.76003 183.86912,164.22271 184.44494,164.41465 184.70245,164.50049 185.00175,164.32881 185.25926,164.41465 185.83508,164.60659 186.32436,165.00356 186.88792,165.22898 187.01393,165.27938 187.17369,165.16828 187.29508,165.22898 187.46675,165.31481 187.51403,165.5985 187.70224,165.63614 188.23458,165.74261 188.78801,165.63614 189.33089,165.63614 189.73806,165.63614 190.14522,165.63614 190.55238,165.63614 191.23099,165.63614 191.92277,165.76922 192.5882,165.63614 193.97765,165.35825 195.29456,164.79389 196.65983,164.41465 197.73819,164.11511 198.86696,163.98723 199.91714,163.60032 200.52675,163.37573 204.29909,161.26519 206.02459,161.15734 207.65007,161.05575 209.28374,161.23481 210.91054,161.15734 216.52791,160.88985 212.65315,160.7339 218.23948,159.93585 218.91127,159.83989 219.6228,160.12228 220.2753,159.93585 220.64441,159.8304 220.74627,159.2932 221.08963,159.12153 221.33241,159.00014 221.65192,159.22234 221.90395,159.12153 223.71357,158.39768 222.67304,158.35244 223.93977,157.08571 224.69725,156.32823 225.42091,156.87092 226.38275,156.67855 226.57096,156.64091 226.61824,156.35722 226.78991,156.27139 226.9113,156.21069 227.08415,156.34667 227.19707,156.27139 228.45728,155.43125 227.48802,155.268 229.23289,155.0499 229.90625,154.96573 230.5901,155.0499 231.26871,155.0499 232.4902,155.0499 233.71168,155.0499 234.93317,155.0499 236.81344,155.0499 235.67933,154.86873 237.78332,156.27139 238.03583,156.43973 238.4368,156.4212 238.59764,156.67855 239.14546,157.55506 239.31716,158.62514 239.81913,159.52869 240.00556,159.86426 240.36202,160.07158 240.63346,160.34302 241.17634,160.8859 241.71923,161.42879 242.26211,161.97167 242.53355,162.24311 242.84238,162.48173 243.07644,162.786 244.20197,164.24919 245.30976,165.72882 246.33374,167.26479 252.54727,176.58507 245.49426,165.99298 248.36956,171.74359 249.25175,173.50796 249.79463,173.37224 251.2197,174.59373 251.65689,174.96847 251.96208,175.49581 252.44119,175.81522 254.90463,177.45751 252.60419,175.22494 254.47701,176.62955 254.78411,176.85987 254.92716,177.32248 255.29134,177.44387 255.80636,177.61555 256.3771,177.44387 256.91999,177.44387 257.19143,177.44387 257.48229,177.34306 257.73431,177.44387 258.18866,177.62561 258.51812,178.03936 258.9558,178.2582 259.0772,178.3189 259.22725,178.2582 259.36297,178.2582 259.63441,178.2582 259.90585,178.2582 260.17729,178.2582 260.8559,178.2582 261.53787,178.32572 262.21311,178.2582 262.85897,178.19361 265.14518,177.65313 265.87758,177.44387 266.29025,177.32597 266.67419,177.09741 267.09907,177.03671 267.6365,176.95993 268.2127,177.20838 268.72772,177.03671 269.0919,176.91532 269.23495,176.45271 269.54205,176.22238 269.78483,176.04029 270.09614,175.97136 270.35637,175.81522 270.77599,175.56345 271.14018,175.21974 271.57786,175.00089 271.69926,174.9402 271.88906,175.09686 271.98503,175.00089 272.081,174.90492 271.98503,174.72945 271.98503,174.59373 271.98503,173.91512 271.98503,173.23652 271.98503,172.55791 271.98503,172.15075 272.05196,171.73805 271.98503,171.33642 271.87126,170.6538 271.76798,169.96603 271.57786,169.30061 271.49449,169.0088 271.30642,168.75772 271.1707,168.48628 270.89926,167.9434 270.52312,167.44124 270.35637,166.85763 270.24452,166.46613 270.41396,166.03921 270.35637,165.63614 270.27724,165.08217 270.05896,164.55621 269.94921,164.00749 269.92135,163.86818 269.99088,162.82767 269.94921,162.786 269.89986,162.73664 269.30205,162.82779 269.13488,162.786 268.71851,162.6819 268.33927,162.43207 267.91339,162.37883 267.24003,162.29466 266.55618,162.37883 265.87758,162.37883 264.24893,162.37883 262.62027,162.37883 260.99162,162.37883 252.55815,162.37883 264.71858,162.48375 254.47701,161.97167 252.98594,161.89712 251.49115,161.97167 249.99821,161.97167 246.87663,161.97167 243.75504,161.97167 240.63346,161.97167 240.36202,161.97167 240.08247,162.0375 239.81913,161.97167 239.52471,161.89807 239.27625,161.42879 239.00481,161.56451 238.76202,161.6859 239.07938,162.11784 239.00481,162.37883 238.80402,163.08159 238.5531,163.78007 238.19048,164.41465 238.00002,164.74795 237.60648,164.92187 237.37615,165.22898 237.19406,165.47176 237.11956,165.77981 236.96899,166.0433 236.57635,166.73042 236.18648,167.42065 235.7475,168.07912 235.64103,168.23882 235.40103,168.30419 235.34034,168.48628 235.2545,168.74379 235.34034,169.02917 235.34034,169.30061 235.0689,169.57205 234.73895,169.79553 234.52601,170.11493 234.45073,170.22786 234.62198,170.42613 234.52601,170.5221 234.31142,170.73669 233.90127,170.69228 233.71168,170.92926 232.95335,171.87718 232.78861,173.19875 232.08303,174.18657 231.74835,174.65513 231.32219,175.06257 230.86154,175.40806 230.75297,175.48949 230.5901,175.40806 230.45438,175.40806 229.77577,175.40806 229.09717,175.40806 228.41856,175.40806 228.28284,175.40806 228.14307,175.44097 228.0114,175.40806 227.59503,175.30396 227.19707,175.13661 226.78991,175.00089 225.97558,174.72945 225.10271,174.59352 224.34693,174.18657 223.31897,173.63305 222.56642,172.61871 221.49679,172.15075 220.35041,171.64921 219.05381,171.60787 217.83232,171.33642 216.74655,170.5221 215.75793,169.55883 214.57501,168.89345 213.56433,168.32494 212.37058,168.1579 211.31771,167.67196 210.59916,167.34032 209.98973,166.80438 209.28189,166.45047 209.05054,166.33479 207.3848,166.55451 207.24608,166.45047 202.89008,163.18347 209.38904,166.92906 205.61742,164.41465 205.39157,164.26408 205.04588,164.53604 204.8031,164.41465 204.63142,164.32881 204.57802,164.06818 204.39593,164.00749 203.7394,163.78864 203.04275,163.71409 202.36012,163.60032 202.22624,163.57801 202.07435,163.66102 201.95295,163.60032 201.13592,163.19181 199.77906,161.99484 199.10281,161.56451 198.17966,160.97705 197.19783,160.4872 196.25267,159.93585 195.56909,159.5371 194.93399,159.04903 194.21685,158.71436 192.89223,158.09621 191.40369,157.82935 190.14522,157.08571 175.73758,148.57211 190.58958,157.16402 183.63061,150.97826 183.08434,150.49269 182.20292,150.56936 181.59479,150.16394 180.95598,149.73806 180.54393,149.04085 179.96614,148.53528 179.45544,148.08842 178.86739,147.73772 178.33749,147.31379 178.18761,147.19389 178.102,146.99247 177.93032,146.90663 177.70926,146.7961 176.53573,147.00025 176.30167,146.90663 175.84732,146.72489 175.55492,146.21099 175.08018,146.09231 175.00794,146.07425 171.14193,146.11009 171.00855,146.09231 169.6366,145.90938 168.29413,145.54942 166.93692,145.27798 165.30826,144.87082 163.71286,144.2939 162.05096,144.05649 160.84175,143.88374 159.60798,144.05649 158.38649,144.05649 157.57216,144.05649 156.75784,144.05649 155.94351,144.05649 155.26491,144.05649 154.5863,144.05649 153.90769,144.05649 153.22909,144.05649 152.53731,143.9234 151.87188,144.05649 151.15519,144.19983 150.51823,144.60844 149.83606,144.87082 148.75375,145.28709 147.70866,145.83156 146.57876,146.09231 140.75105,146.09231 147.48907,145.71588 143.32145,146.90663 142.24419,147.21442 141.70048,146.49179 140.87847,147.31379 140.7825,147.40976 140.87847,147.58524 140.87847,147.72096 140.87847,148.10444 140.95568,149.52515 140.87847,149.75677 140.81778,149.93886 140.60703,150.02822 140.47131,150.16394 140.19987,150.43538 139.96408,150.74794 139.65698,150.97826 139.4142,151.16035 139.03694,151.15229 138.84266,151.38543 138.33602,151.99338 138.1278,152.81329 137.62117,153.42124 137.00127,154.16512 136.78989,153.45514 136.39968,154.23557 136.3348,154.36532 136.39968,155.90749 136.39968,156.27139 136.39968,156.67855 136.39968,157.08571 136.39968,157.49288 136.39968,157.6286 136.30371,157.80407 136.39968,157.90004 136.49565,157.99601 136.71087,157.80407 136.80684,157.90004 136.8081,157.9013 136.80485,159.10762 136.80684,159.12153 136.90471,159.80662 137.10023,160.47472 137.214,161.15734 137.31608,161.76983 137.214,162.90258 137.214,163.60032 137.214,163.73404 137.25445,164.76115 137.214,164.82181 137.00107,165.14122 136.67112,165.3647 136.39968,165.63614 136.26396,165.77186 136.16419,165.95747 135.99251,166.0433 135.60864,166.23524 135.12027,166.20101 134.77102,166.45047 134.14628,166.89671 133.79343,167.67221 133.14237,168.07912 132.66784,168.3757 132.05178,168.33255 131.51372,168.48628 131.10104,168.60419 130.7086,168.78935 130.29223,168.89345 130.12506,168.93524 129.52726,168.84409 129.4779,168.89345 129.38193,168.98941 129.57387,169.20464 129.4779,169.30061 129.38193,169.39658 129.19213,169.23991 129.07074,169.30061 128.72739,169.47228 128.63283,170.03965 128.25641,170.11493 127.72407,170.2214 127.17064,170.11493 126.62776,170.11493 125.94915,170.11493 125.27055,170.11493 124.59194,170.11493 124.3205,170.11493 124.04537,170.07031 123.77762,170.11493 122.25019,170.36951 122.28286,170.54201 120.92747,170.92926 120.38941,171.08299 119.8297,171.15947 119.29882,171.33642 117.56652,171.91386 117.34188,172.31398 115.63435,172.55791 115.23128,172.6155 114.82003,172.55791 114.41286,172.55791 113.91585,172.55791 113.47395,172.39992 113.19137,172.96508 113.13068,173.08647 113.13068,173.25085 113.19137,173.37224 113.27721,173.54392 113.46282,173.64368 113.59854,173.7794 114.67527,174.85614 115.00835,174.42476 116.44868,175.00089 116.62689,175.07218 116.72012,175.27234 116.85584,175.40806 116.99156,175.54378 117.17717,175.64354 117.26301,175.81522 117.3237,175.93661 117.15008,176.1471 117.26301,176.22238 117.62011,176.46045 118.06115,176.55899 118.4845,176.62955 119.01999,176.7188 119.57026,176.62955 120.11315,176.62955 120.92747,176.62955 121.76119,176.8062 122.55613,176.62955 123.03382,176.52339 123.30288,175.9339 123.77762,175.81522 124.43596,175.65063 125.14577,175.93661 125.81343,175.81522 126.65796,175.66167 127.45269,175.30229 128.25641,175.00089 128.54057,174.89433 128.77031,174.63665 129.07074,174.59373 134.58814,174.59373 129.0783,174.89721 131.92088,174.18657 132.18422,174.12073 132.49242,174.30796 132.73521,174.18657 132.8566,174.12587 132.73521,173.91512 132.73521,173.7794 132.87093,173.64368 132.95616,173.41879 133.14237,173.37224 136.24847,173.37224 132.82118,173.55433 135.17819,172.96508 135.44152,172.89924 135.74049,173.06589 135.99251,172.96508 136.44686,172.78334 136.79439,172.40252 137.214,172.15075 137.47424,171.99461 137.78554,171.92568 138.02833,171.74359 140.00003,170.26482 137.28113,171.34292 140.87847,169.70777 143.2094,168.64826 146.22804,168.35989 148.61457,168.07912 149.15374,168.01569 149.73303,168.26465 150.24323,168.07912 155.07134,166.32344 151.22821,166.76455 155.53635,164.41465 156.14389,164.08326 156.92962,164.26451 157.57216,164.00749 163.23698,161.74156 157.44774,163.75641 160.42231,161.97167 160.79033,161.75086 161.23663,161.70023 161.6438,161.56451 162.05096,161.42879 162.44891,161.26144 162.86529,161.15734 163.53667,160.9895 164.29615,161.08627 164.9011,160.75018 165.57224,160.37733 165.98687,159.66441 166.52975,159.12153 167.07264,158.57864 167.48727,157.86573 168.15841,157.49288 168.76336,157.15679 169.53137,157.28457 170.19422,157.08571 171.09993,156.814 172.43429,156.09028 173.45153,155.86422 176.12928,155.26917 177.97569,155.45706 180.78047,155.45706 183.35917,155.45706 185.94093,155.5827 188.51657,155.45706 191.51118,155.31098 194.48087,154.81378 197.47416,154.64273 199.23566,154.54208 201.00291,154.64273 202.76728,154.64273 205.4817,154.64273 208.20008,154.78924 210.91054,154.64273 213.23033,154.51734 215.51599,154.00659 217.83232,153.82841 224.4718,153.82841 219.00559,154.06796 223.5326,153.42124 223.80132,153.38286 224.07549,153.42124 224.34693,153.42124 225.56842,153.42124 226.79413,153.52268 228.0114,153.42124 229.10397,153.3302 230.72327,152.17363 231.67587,151.79259 232.07083,151.63461 232.93772,151.97599 233.30452,151.79259 233.42591,151.73189 233.20855,151.4814 233.30452,151.38543 233.40049,151.28946 233.57596,151.38543 233.71168,151.38543 233.84741,151.38543 233.98313,151.38543 234.11885,151.38543 234.79745,151.38543 235.47606,151.38543 236.15466,151.38543 236.42611,151.38543 236.70799,151.46 236.96899,151.38543 237.67175,151.18464 238.29575,150.74837 239.00481,150.5711 239.39981,150.47235 239.81913,150.5711 240.2263,150.5711 240.76918,150.29966 241.2914,149.98219 241.85495,149.75677 241.98096,149.70637 242.12639,149.75677 242.26211,149.75677 242.805,149.75677 243.34788,149.75677 243.89077,149.75677 244.02649,149.75677 244.16221,149.75677 244.29793,149.75677 244.43365,149.75677 244.5837,149.81747 244.70509,149.75677 244.87677,149.67094 244.94058,149.43545 245.11225,149.34961 245.23365,149.28891 245.39803,149.41031 245.51942,149.34961 245.69109,149.26377 245.73837,148.98009 245.92658,148.94245 248.12609,148.50254 246.92821,149.11855 248.77672,149.34961 250.12345,149.51795 251.50305,149.17024 252.84836,149.34961 254.2203,149.53254 255.54752,149.98492 256.91999,150.16394 259.5787,151.27186 262.36643,150.234 265.06325,150.5711 266.30488,150.7263 267.48901,151.20847 268.72772,151.38543 269.66822,151.51978 270.62782,151.38543 271.57786,151.38543"
     id="path3851"
     inkscape:connector-curvature="0" />
  <g
     inkscape:groupmode="layer"
     id="layer1"
     inkscape:label="Shading"
     style="display:inline">
    <path
       sodipodi:nodetypes="cssccsscc"
       inkscape:connector-curvature="0"
       id="path3043"
       d="M 52.759117,269.12187 C 48.172641,251.80335 30.783634,5.5597248 35.12476,-46.065259 35.418871,-49.562853 38.045032,-51.590384 43.325896,-52.469091 130.59859,-66.990788 315.54702,-55.278311 332.8215,-52.399232 338.28824,-52.064924 340.49673,-49.382405 341.29008,-45.794815 349.81954,-19.81325 333.33385,254.9661 332.2866,267.06772 332.03807,269.93967 323.27447,276.813 319.77532,276.96737 284.03528,278.54413 102.20729,279.84644 61.612284,276.96737 56.070058,274.16027 54.676581,272.96683 52.759117,269.12187 z"
       style="opacity:0.2;fill:none;stroke:#000000;stroke-width:12;stroke-linecap:butt;stroke-linejoin:miter;stroke-miterlimit:4;stroke-opacity:1;stroke-dasharray:none;filter:url(#filter3895)"
       clip-path="url(#clipPath3827)" />
    <path
       sodipodi:nodetypes="ccscccsccc"
       inkscape:connector-curvature="0"
       id="path3843"
       d="M 34.781462,-28.622134 C 34.781462,-28.622134 105.08638,-30.662188 111.99616,-28.358925 116.60269,-26.775432 118.46688,-25.760539 119.48176,-21.880999 121.24785,-15.129838 123.65643,13.675623 127.25528,21.017274 131.42994,31.669865 134.74089,36.852207 140.78695,37.715931 156.33397,39.443378 236.94818,40.595009 248.17658,39.443378 254.51056,39.15547 257.42162,34.254688 262.57198,22.744722 264.74355,17.891714 266.17083,-9.357006 267.1785,-19.00192 267.89827,-22.744722 270.31428,-25.214353 273.80039,-25.191938 291.13813,-25.953671 342.96813,-24.978126 342.96813,-24.978126"
       style="opacity:0.65;fill:none;stroke:#000000;stroke-width:5;stroke-linecap:butt;stroke-linejoin:miter;stroke-miterlimit:4;stroke-opacity:1;stroke-dasharray:none;filter:url(#filter3891)"
       clip-path="url(#clipPath3883)" />
  </g>
</svg>
