<?xml version="1.0" encoding="UTF-8" standalone="no"?>
<!-- Created with Inkscape (http://www.inkscape.org/) -->

<svg
   xmlns:dc="http://purl.org/dc/elements/1.1/"
   xmlns:cc="http://creativecommons.org/ns#"
   xmlns:rdf="http://www.w3.org/1999/02/22-rdf-syntax-ns#"
   xmlns:svg="http://www.w3.org/2000/svg"
   xmlns="http://www.w3.org/2000/svg"
   xmlns:xlink="http://www.w3.org/1999/xlink"
   xmlns:sodipodi="http://sodipodi.sourceforge.net/DTD/sodipodi-0.dtd"
   xmlns:inkscape="http://www.inkscape.org/namespaces/inkscape"
   width="364.54349"
   height="29.112364"
   id="svg2"
   version="1.1"
   inkscape:version="0.48.2 r9819"
   sodipodi:docname="q-tip.svg"
   inkscape:export-filename="C:\Users\Trev\Projects\mm-ripoff\application\assets\img\q-tip.png"
   inkscape:export-xdpi="87.059998"
   inkscape:export-ydpi="87.059998">
  <defs
     id="defs4">
    <linearGradient
       id="linearGradient3919">
      <stop
         style="stop-color:#000000;stop-opacity:1;"
         offset="0"
         id="stop3921" />
      <stop
         id="stop3927"
         offset="0.51675516"
         style="stop-color:#000000;stop-opacity:1;" />
      <stop
         style="stop-color:#000000;stop-opacity:0;"
         offset="1"
         id="stop3923" />
    </linearGradient>
    <linearGradient
       id="linearGradient3861">
      <stop
         style="stop-color:#000000;stop-opacity:1;"
         offset="0"
         id="stop3863" />
      <stop
         id="stop3869"
         offset="0.54942375"
         style="stop-color:#000000;stop-opacity:1;" />
      <stop
         style="stop-color:#000000;stop-opacity:0;"
         offset="1"
         id="stop3865" />
    </linearGradient>
    <linearGradient
       id="linearGradient3835">
      <stop
         style="stop-color:#000000;stop-opacity:1;"
         offset="0"
         id="stop3837" />
      <stop
         id="stop3859"
         offset="0.5"
         style="stop-color:#000000;stop-opacity:1;" />
      <stop
         style="stop-color:#000000;stop-opacity:0;"
         offset="1"
         id="stop3839" />
    </linearGradient>
    <linearGradient
       id="linearGradient3775">
      <stop
         style="stop-color:#e8e8e8;stop-opacity:1;"
         offset="0"
         id="stop3777" />
      <stop
         id="stop3787"
         offset="0.35069445"
         style="stop-color:#f7f7f7;stop-opacity:1;" />
      <stop
         id="stop3783"
         offset="0.5"
         style="stop-color:#fafafa;stop-opacity:1;" />
      <stop
         style="stop-color:#f7f7f7;stop-opacity:1;"
         offset="0.64930558"
         id="stop3785" />
      <stop
         style="stop-color:#e8e8e8;stop-opacity:1;"
         offset="1"
         id="stop3779" />
    </linearGradient>
    <linearGradient
       inkscape:collect="always"
       xlink:href="#linearGradient3775"
       id="linearGradient3781"
       x1="325.10303"
       y1="325.35873"
       x2="325.10303"
       y2="315.30096"
       gradientUnits="userSpaceOnUse" />
    <linearGradient
       inkscape:collect="always"
       xlink:href="#linearGradient3861"
       id="linearGradient3867"
       x1="139.19031"
       y1="320.98563"
       x2="215.90396"
       y2="321.34277"
       gradientUnits="userSpaceOnUse" />
    <filter
       inkscape:collect="always"
       id="filter3903"
       x="-0.095078386"
       width="1.1901568"
       y="-0.31517518"
       height="1.6303504"
       color-interpolation-filters="sRGB">
      <feGaussianBlur
         inkscape:collect="always"
         stdDeviation="2.642928"
         id="feGaussianBlur3905" />
    </filter>
    <clipPath
       clipPathUnits="userSpaceOnUse"
       id="clipPath3909">
      <path
         id="path3911"
         d="M 215.10303,324.54727 C 207.06224,324.54727 197.76561,327.69904 192.53738,329.01899 179.43354,332.32728 160.24757,331.34128 154.21941,327.86091 150.13138,325.50069 149.1903,324.66085 149.1903,319.48753 149.1903,315.952 162.54573,310.92292 175.30044,310.92292 190.39826,310.92292 206.75509,315.4559 215.90396,315.4559 z"
         style="opacity:0.3;fill:#fafafa;fill-opacity:1;stroke:url(#linearGradient3913);stroke-width:5;stroke-linecap:butt;stroke-linejoin:miter;stroke-miterlimit:4;stroke-opacity:1;stroke-dasharray:none;filter:url(#filter3903)"
         inkscape:connector-curvature="0" />
    </clipPath>
    <linearGradient
       inkscape:collect="always"
       xlink:href="#linearGradient3861"
       id="linearGradient3913"
       gradientUnits="userSpaceOnUse"
       x1="139.19031"
       y1="320.98563"
       x2="215.90396"
       y2="321.34277" />
    <linearGradient
       inkscape:collect="always"
       xlink:href="#linearGradient3861"
       id="linearGradient3917"
       gradientUnits="userSpaceOnUse"
       x1="139.19031"
       y1="320.98563"
       x2="219.65396"
       y2="320.44992" />
    <linearGradient
       inkscape:collect="always"
       xlink:href="#linearGradient3919"
       id="linearGradient3925"
       x1="509.00195"
       y1="319.56323"
       x2="444.59094"
       y2="320.27753"
       gradientUnits="userSpaceOnUse" />
    <filter
       inkscape:collect="always"
       id="filter3937"
       x="-0.098129332"
       width="1.1962587"
       y="-0.28813717"
       height="1.5762743"
       color-interpolation-filters="sRGB">
      <feGaussianBlur
         inkscape:collect="always"
         stdDeviation="2.4831566"
         id="feGaussianBlur3939" />
    </filter>
    <clipPath
       clipPathUnits="userSpaceOnUse"
       id="clipPath3943">
      <path
         id="path3945"
         d="M 447.85908,315.4559 C 459.21425,315.4559 478.99088,309.93596 489.26046,309.93596 498.10148,309.93596 505.48698,314.18083 505.72402,319.22603 505.90259,323.02679 503.7772,330.95292 487.11326,330.60819 478.48145,330.42961 451.3907,324.54727 445.00193,324.54727 z"
         style="opacity:0.2;fill:#fafafa;fill-opacity:1;stroke:url(#linearGradient3947);stroke-width:5;stroke-linecap:butt;stroke-linejoin:miter;stroke-miterlimit:4;stroke-opacity:1;stroke-dasharray:none;filter:url(#filter3937)"
         inkscape:connector-curvature="0" />
    </clipPath>
    <linearGradient
       inkscape:collect="always"
       xlink:href="#linearGradient3919"
       id="linearGradient3947"
       gradientUnits="userSpaceOnUse"
       x1="509.00195"
       y1="319.56323"
       x2="444.59094"
       y2="320.27753" />
    <linearGradient
       inkscape:collect="always"
       xlink:href="#linearGradient3919"
       id="linearGradient3957"
       gradientUnits="userSpaceOnUse"
       x1="509.00195"
       y1="319.56323"
       x2="444.59094"
       y2="320.27753" />
  </defs>
  <sodipodi:namedview
     id="base"
     pagecolor="#ffffff"
     bordercolor="#666666"
     borderopacity="1.0"
     inkscape:pageopacity="0.0"
     inkscape:pageshadow="2"
     inkscape:zoom="2.8"
     inkscape:cx="181.3078"
     inkscape:cy="-4.9333859"
     inkscape:document-units="px"
     inkscape:current-layer="layer1"
     showgrid="false"
     fit-margin-top="3"
     fit-margin-left="3"
     fit-margin-right="3"
     fit-margin-bottom="3"
     inkscape:showpageshadow="false"
     inkscape:window-width="1600"
     inkscape:window-height="838"
     inkscape:window-x="-8"
     inkscape:window-y="-8"
     inkscape:window-maximized="1" />
  <metadata
     id="metadata7">
    <rdf:RDF>
      <cc:Work
         rdf:about="">
        <dc:format>image/svg+xml</dc:format>
        <dc:type
           rdf:resource="http://purl.org/dc/dcmitype/StillImage" />
        <dc:title></dc:title>
      </cc:Work>
    </rdf:RDF>
  </metadata>
  <g
     inkscape:label="Layer 1"
     inkscape:groupmode="layer"
     id="layer1"
     transform="translate(-145.1903,-305.93596)">
    <path
       sodipodi:nodetypes="ssssssssssss"
       inkscape:connector-curvature="0"
       id="path3955"
       d="M 215.90396,315.4559 C 230.06278,315.4559 432.39072,315.4559 447.85908,315.4559 459.21425,315.4559 478.99088,309.93596 489.26046,309.93596 498.10148,309.93596 505.48698,314.18083 505.72402,319.22603 505.90259,323.02679 503.7772,330.95292 487.11326,330.60819 478.48145,330.42961 451.3907,324.54727 445.00193,324.54727 424.78446,324.54727 234.27879,324.54727 215.10303,324.54727 207.06224,324.54727 197.76561,327.69904 192.53738,329.01899 179.43354,332.32728 160.24757,331.34128 154.21941,327.86091 150.13138,325.50069 149.1903,324.66085 149.1903,319.48753 149.1903,315.952 162.54573,310.92292 175.30044,310.92292 190.39826,310.92292 206.75509,315.4559 215.90396,315.4559 z"
       style="fill:#ffffff;fill-opacity:1;stroke:none" />
    <path
       sodipodi:nodetypes="ccccc"
       inkscape:connector-curvature="0"
       id="path3773"
       d="M 215.90396,315.4559 447.85908,315.4559 445.00193,324.54727 215.10303,324.54727 z"
       style="fill:url(#linearGradient3781);fill-opacity:1;stroke:none" />
    <path
       style="opacity:0.2;fill:#fafafa;fill-opacity:1;stroke:url(#linearGradient3957);stroke-width:5;stroke-linecap:butt;stroke-linejoin:miter;stroke-miterlimit:4;stroke-opacity:1;stroke-dasharray:none;filter:url(#filter3937)"
       d="M 447.85908,315.4559 C 459.21425,315.4559 478.99088,309.93596 489.26046,309.93596 498.10148,309.93596 505.48698,314.18083 505.72402,319.22603 505.90259,323.02679 503.7772,330.95292 487.11326,330.60819 478.48145,330.42961 451.3907,324.54727 445.00193,324.54727 z"
       id="path3793"
       clip-path="url(#clipPath3943)"
       inkscape:connector-curvature="0" />
    <path
       style="opacity:0.2;fill:#fafafa;fill-opacity:1;stroke:url(#linearGradient3917);stroke-width:5;stroke-linecap:butt;stroke-linejoin:miter;stroke-miterlimit:4;stroke-opacity:1;stroke-dasharray:none;filter:url(#filter3903)"
       d="M 215.10303,324.54727 C 207.06224,324.54727 197.76561,327.69904 192.53738,329.01899 179.43354,332.32728 160.24757,331.34128 154.21941,327.86091 150.13138,325.50069 149.1903,324.66085 149.1903,319.48753 149.1903,315.952 162.54573,310.92292 175.30044,310.92292 190.39826,310.92292 206.75509,315.4559 215.90396,315.4559 z"
       id="path3789"
       clip-path="url(#clipPath3909)"
       inkscape:connector-curvature="0" />
    <path
       style="fill:none;stroke:#000000;stroke-width:2;stroke-linecap:butt;stroke-linejoin:miter;stroke-miterlimit:4;stroke-opacity:1;stroke-dasharray:none"
       d="M 215.90396,315.4559 C 230.06278,315.4559 432.39072,315.4559 447.85908,315.4559 459.21425,315.4559 478.99088,309.93596 489.26046,309.93596 498.10148,309.93596 505.48698,314.18083 505.72402,319.22603 505.90259,323.02679 503.7772,330.95292 487.11326,330.60819 478.48145,330.42961 451.3907,324.54727 445.00193,324.54727 424.78446,324.54727 234.27879,324.54727 215.10303,324.54727 207.06224,324.54727 197.76561,327.69904 192.53738,329.01899 179.43354,332.32728 160.24757,331.34128 154.21941,327.86091 150.13138,325.50069 149.1903,324.66085 149.1903,319.48753 149.1903,315.952 162.54573,310.92292 175.30044,310.92292 190.39826,310.92292 206.75509,315.4559 215.90396,315.4559 z"
       id="path2985"
       inkscape:connector-curvature="0"
       sodipodi:nodetypes="ssssssssssss" />
    <path
       style="fill:none;stroke:#000000;stroke-width:1px;stroke-linecap:butt;stroke-linejoin:miter;stroke-opacity:1"
       d="M 447.85714,315.48718 445.17857,324.37111"
       id="path3949"
       inkscape:connector-curvature="0" />
    <path
       style="fill:none;stroke:#000000;stroke-width:1px;stroke-linecap:butt;stroke-linejoin:miter;stroke-opacity:1"
       d="M 216.04638,315.51903 215.03622,324.421"
       id="path3951"
       inkscape:connector-curvature="0" />
  </g>
</svg>
