<?xml version="1.0" encoding="UTF-8" standalone="no"?>
<!-- Created with Inkscape (http://www.inkscape.org/) -->

<svg
   xmlns:dc="http://purl.org/dc/elements/1.1/"
   xmlns:cc="http://creativecommons.org/ns#"
   xmlns:rdf="http://www.w3.org/1999/02/22-rdf-syntax-ns#"
   xmlns:svg="http://www.w3.org/2000/svg"
   xmlns="http://www.w3.org/2000/svg"
   xmlns:xlink="http://www.w3.org/1999/xlink"
   xmlns:sodipodi="http://sodipodi.sourceforge.net/DTD/sodipodi-0.dtd"
   xmlns:inkscape="http://www.inkscape.org/namespaces/inkscape"
   id="svg2985"
   version="1.1"
   inkscape:version="0.48.2 r9819"
   width="827"
   height="135"
   sodipodi:docname="toothbrush.png">
  <metadata
     id="metadata2991">
    <rdf:RDF>
      <cc:Work
         rdf:about="">
        <dc:format>image/svg+xml</dc:format>
        <dc:type
           rdf:resource="http://purl.org/dc/dcmitype/StillImage" />
        <dc:title></dc:title>
      </cc:Work>
    </rdf:RDF>
  </metadata>
  <defs
     id="defs2989" />
  <sodipodi:namedview
     pagecolor="#ffffff"
     bordercolor="#666666"
     borderopacity="1"
     objecttolerance="10"
     gridtolerance="10"
     guidetolerance="10"
     inkscape:pageopacity="0"
     inkscape:pageshadow="2"
     inkscape:window-width="1600"
     inkscape:window-height="838"
     id="namedview2987"
     showgrid="false"
     inkscape:zoom="1.7412334"
     inkscape:cx="413.5"
     inkscape:cy="67.5"
     inkscape:window-x="-8"
     inkscape:window-y="-8"
     inkscape:window-maximized="1"
     inkscape:current-layer="svg2985" />
  <image
     width="827"
     height="135"
     xlink:href="file:///C:/Users/Trev/Projects/mm-ripoff/application/assets/img/toothbrush.png"
     id="image2993"
     x="0"
     y="0" />
  <path
     style="fill:none;stroke:#000000;stroke-width:1px;stroke-linecap:butt;stroke-linejoin:miter;stroke-opacity:1"
     d="M 18.952083,85.609722 21.249306,71.826389 53.984722,55.745833 155.0625,44.834028 379.04167,36.79375 l 41.9243,-1.148611 60.87639,13.783333 13.20903,8.614584 111.98958,34.458333 32.16111,4.020139 43.64723,-5.16875 1.14861,-38.478472 25.26944,-5.743056 24.12083,0.574305 32.73542,-1.148611 44.22153,-10.911805 8.61458,2.297222 -9.18889,48.241667 6.89167,1.148611 1.14861,15.506251 -23.54652,7.46597 -186.07501,8.61458 -126.92152,-17.80347 -43.64723,0.5743 -33.88402,-5.743047 -24.12084,-9.18889 -52.83611,-4.594444 -94.76042,8.040277 -98.78055,13.783334 -59.727779,2.87153 -35.032639,-5.74306 z"
     id="path2995"
     inkscape:connector-curvature="0"
     sodipodi:nodetypes="cccccccccccccccccccccccccccccccc" />
</svg>
