<?xml version="1.0" encoding="UTF-8" standalone="no"?>
<!-- Created with Inkscape (http://www.inkscape.org/) -->

<svg
   xmlns:dc="http://purl.org/dc/elements/1.1/"
   xmlns:cc="http://creativecommons.org/ns#"
   xmlns:rdf="http://www.w3.org/1999/02/22-rdf-syntax-ns#"
   xmlns:svg="http://www.w3.org/2000/svg"
   xmlns="http://www.w3.org/2000/svg"
   xmlns:sodipodi="http://sodipodi.sourceforge.net/DTD/sodipodi-0.dtd"
   xmlns:inkscape="http://www.inkscape.org/namespaces/inkscape"
   id="svg3986"
   version="1.1"
   inkscape:version="0.91 r13725"
   width="4080"
   height="3060"
   viewBox="0 0 4080 3060"
   sodipodi:docname="tuning-fork-1.svg">
  <metadata
     id="metadata3992">
    <rdf:RDF>
      <cc:Work
         rdf:about="">
        <dc:format>image/svg+xml</dc:format>
        <dc:type
           rdf:resource="http://purl.org/dc/dcmitype/StillImage" />
        <dc:title></dc:title>
      </cc:Work>
    </rdf:RDF>
  </metadata>
  <defs
     id="defs3990" />
  <sodipodi:namedview
     pagecolor="#ffffff"
     bordercolor="#666666"
     borderopacity="1"
     objecttolerance="10"
     gridtolerance="10"
     guidetolerance="10"
     inkscape:pageopacity="0"
     inkscape:pageshadow="2"
     inkscape:window-width="1496"
     inkscape:window-height="868"
     id="namedview3988"
     showgrid="false"
     inkscape:zoom="0.29150327"
     inkscape:cx="2040"
     inkscape:cy="1530"
     inkscape:window-x="0"
     inkscape:window-y="0"
     inkscape:window-maximized="0"
     inkscape:current-layer="svg3986" />
  <path
     style="fill:#000000;fill-rule:evenodd;stroke:#000000;stroke-width:1px;stroke-linecap:butt;stroke-linejoin:miter;stroke-opacity:1"
     d="m 469.97758,1210.9641 51.4574,-3.4305 78.90134,3.4305 2072.01798,-6.861 c 0,0 18.8561,20.1112 27.4439,30.8745 6.135,7.6891 9.3495,18.0239 17.1525,24.0134 7.7501,5.9489 19.058,12.1394 27.4439,17.1525 10.4334,6.2371 17.079,10.8024 27.444,17.1525 5.2508,3.2169 11.4514,4.5332 17.1524,6.861 13.7625,5.6193 27.7865,10.6738 41.166,17.1524 10.5961,5.1309 19.8681,12.9734 30.8744,17.1525 9.856,3.7423 20.5923,4.5322 30.8744,6.861 14.8793,3.37 29.4382,8.5651 44.5964,10.2914 7.9531,0.9058 16.009,0 24.0135,0 l 48.0269,0 c 12.5785,0 25.1618,0.349 37.7354,0 20.6068,-0.572 41.7098,1.4069 61.7489,-3.4304 10.9477,-2.6427 37.4802,-9.7719 48.0269,-13.722 14.5652,-5.4552 13.2972,-7.2588 27.444,-13.722 9.8122,-4.4829 17.0304,-14.3359 27.4439,-17.1525 36.4433,-9.857 75.4709,2.287 113.2063,3.4305 37.7354,1.1435 75.5515,0.713 113.2063,3.4305 40.1784,2.8996 79.9236,10.3748 120.0672,13.722 21.6813,1.8078 43.6632,0.2055 65.1794,3.4305 23.3134,3.4944 46.8305,8.1312 68.6099,17.1525 6.1601,2.5516 12.3268,5.6902 17.1524,10.2914 2.9839,2.8452 6.861,10.2915 6.861,10.2915 l 0,17.1525 0,10.2915 c 0,0 -1.338,9.497 -3.4305,13.7219 -3.2497,6.5613 -7.716,12.9646 -13.722,17.1525 -2.9661,2.0683 -6.8066,2.4653 -10.2914,3.4305 -10.16,2.8142 -20.4562,5.2474 -30.8745,6.861 -51.0516,7.907 -102.9142,9.1552 -154.3722,13.722 -90.3352,8.0171 -180.8312,14.3852 -271.0089,24.0134 -9.1671,0.9788 -18.3203,4.7537 -27.444,3.4305 -19.7636,-2.8663 -29.942,-18.9734 -48.0269,-27.4439 -9.2621,-4.3382 -24.7507,-6.6412 -34.3049,-10.2915 -12.1792,-4.6533 -25.0789,-7.1612 -37.7354,-10.2915 -10.2342,-2.5312 -20.3949,-2.2801 -30.8745,-3.4305 -11.3667,-1.2477 -22.892,-4.141 -34.3049,-3.4305 -9.2014,0.5729 -18.2853,2.3761 -27.444,3.4305 -21.7031,2.4985 -43.6181,3.3422 -65.1793,6.861 -10.4049,1.6981 -20.5255,4.8502 -30.8745,6.861 -13.6559,2.6533 -28.5207,1.0625 -41.1659,6.861 -8.1182,3.7226 -13.1086,12.264 -20.583,17.1524 -21.3991,13.9953 -47.517,19.852 -68.6098,34.305 -28.0462,19.2176 -75.4709,68.6098 -75.4709,68.6098 l -123.4977,6.861 -185.2467,3.4305 -178.3856,0 -1739.26011,3.4305 3.4305,-96.0538 1986.25561,-10.2915 37.7354,-6.861 20.583,-6.861 c 5.7175,-3.4305 11.4349,-6.8609 17.1524,-10.2914 l 20.583,-20.583 c 4.574,-11.435 9.148,-22.8699 13.722,-34.3049 l -17.1525,-54.8879 c -10.2915,-4.574 -20.5829,-9.148 -30.8744,-13.722 l -44.5964,-10.2915 -2003.40811,10.2915 z"
     id="path3996"
     inkscape:connector-curvature="0"
     sodipodi:nodetypes="ccccsssssssssssssssssssssscccssssssssssssssssssccccccccccccccccc" />
  <flowRoot
     xml:space="preserve"
     id="flowRoot4002"
     style="font-style:normal;font-weight:normal;font-size:40px;line-height:125%;font-family:Sans;letter-spacing:0px;word-spacing:0px;fill:#ffffff;fill-opacity:1;stroke:none;stroke-width:1px;stroke-linecap:butt;stroke-linejoin:miter;stroke-opacity:1"
     transform="matrix(0,-1,1,0,1280.0677,4057.5417)"><flowRegion
       id="flowRegion4004"><rect
         id="rect4006"
         width="147.51115"
         height="120.06721"
         x="2631.1882"
         y="1361.9059"
         style="fill:#ffffff" /></flowRegion><flowPara
       id="flowPara4008">440</flowPara></flowRoot>  <text
     xml:space="preserve"
     style="font-style:normal;font-weight:normal;font-size:40px;line-height:125%;font-family:Sans;letter-spacing:0px;word-spacing:0px;fill:#000000;fill-opacity:1;stroke:none;stroke-width:1px;stroke-linecap:butt;stroke-linejoin:miter;stroke-opacity:1"
     x="2720.3811"
     y="1389.3499"
     id="text4010"
     sodipodi:linespacing="125%"><tspan
       sodipodi:role="line"
       id="tspan4012"
       x="2720.3811"
       y="1389.3499"></tspan></text>
  <flowRoot
     xml:space="preserve"
     id="flowRoot4014"
     style="font-style:normal;font-weight:normal;font-size:40px;line-height:125%;font-family:Sans;letter-spacing:0px;word-spacing:0px;fill:#ffffff;fill-opacity:1;stroke:none;stroke-width:1px;stroke-linecap:butt;stroke-linejoin:miter;stroke-opacity:1"
     transform="matrix(0,-1.781786,1.589796,0,573.32265,6258.5075)"><flowRegion
       id="flowRegion4016"><rect
         id="rect4018"
         width="113.2062"
         height="171.52464"
         x="2720.3811"
         y="1334.4619"
         style="fill:#ffffff" /></flowRegion><flowPara
       id="flowPara4020">A</flowPara></flowRoot></svg>
