<?xml version="1.0" encoding="UTF-8" standalone="no"?>
<!-- Created with Inkscape (http://www.inkscape.org/) -->

<svg
   xmlns:dc="http://purl.org/dc/elements/1.1/"
   xmlns:cc="http://creativecommons.org/ns#"
   xmlns:rdf="http://www.w3.org/1999/02/22-rdf-syntax-ns#"
   xmlns:svg="http://www.w3.org/2000/svg"
   xmlns="http://www.w3.org/2000/svg"
   xmlns:xlink="http://www.w3.org/1999/xlink"
   xmlns:sodipodi="http://sodipodi.sourceforge.net/DTD/sodipodi-0.dtd"
   xmlns:inkscape="http://www.inkscape.org/namespaces/inkscape"
   id="svg2985"
   version="1.1"
   inkscape:version="0.48.2 r9819"
   width="4608"
   height="3456"
   sodipodi:docname="comb.svg"
   inkscape:export-filename="C:\Users\Trev\Projects\mm-ripoff\application\assets\img\comb.png"
   inkscape:export-xdpi="15.54"
   inkscape:export-ydpi="15.54">
  <metadata
     id="metadata2991">
    <rdf:RDF>
      <cc:Work
         rdf:about="">
        <dc:format>image/svg+xml</dc:format>
        <dc:type
           rdf:resource="http://purl.org/dc/dcmitype/StillImage" />
        <dc:title />
      </cc:Work>
    </rdf:RDF>
  </metadata>
  <defs
     id="defs2989">
    <linearGradient
       id="linearGradient4303">
      <stop
         id="stop3783"
         offset="0"
         style="stop-color:#ffffff;stop-opacity:0.49803922;" />
      <stop
         style="stop-color:#ffffff;stop-opacity:0;"
         offset="1"
         id="stop4307" />
    </linearGradient>
    <radialGradient
       inkscape:collect="always"
       xlink:href="#linearGradient4303"
       id="radialGradient4309"
       cx="2006.9348"
       cy="1600.0243"
       fx="2006.9348"
       fy="1600.0243"
       r="1080.3077"
       gradientTransform="matrix(-0.99977272,0.04548165,-0.00999451,-0.99988873,4029.405,2969.6259)"
       gradientUnits="userSpaceOnUse" />
    <filter
       inkscape:collect="always"
       id="filter4363"
       x="-0.039799142"
       width="1.0795983"
       y="-0.41898804"
       height="1.8379761">
      <feGaussianBlur
         inkscape:collect="always"
         stdDeviation="36.851334"
         id="feGaussianBlur4365" />
    </filter>
  </defs>
  <sodipodi:namedview
     pagecolor="#ffffff"
     bordercolor="#666666"
     borderopacity="1"
     objecttolerance="10"
     gridtolerance="10"
     guidetolerance="10"
     inkscape:pageopacity="0"
     inkscape:pageshadow="2"
     inkscape:window-width="1600"
     inkscape:window-height="838"
     id="namedview2987"
     showgrid="false"
     inkscape:zoom="0.32"
     inkscape:cx="2329.5072"
     inkscape:cy="1805.9627"
     inkscape:window-x="-8"
     inkscape:window-y="-8"
     inkscape:window-maximized="1"
     inkscape:current-layer="svg2985" />
  <path
     style="fill:#040404;stroke:#000000;stroke-width:8;stroke-linecap:butt;stroke-linejoin:round;stroke-opacity:1;fill-opacity:1;stroke-miterlimit:4;stroke-dasharray:none"
     d="M 3822.3462,2065.8385 C 3832.6671,2052.1942 3893.1692,1866.8308 3893.1692,1866.8308 3893.1692,1866.8308 3946.3385,1663.0154 3904.9846,1609.8462 3863.6308,1556.6769 3845.9077,1536 3677.5385,1491.6923 3509.1692,1447.3846 2289.2308,1373.5385 2035.2,1373.5385 1781.1692,1373.5385 809.35385,1391.2615 726.64615,1456.2462 643.93846,1521.2308 635.07692,1553.7231 643.93846,1671.8769 652.8,1790.0308 657.00263,1844.1744 726.65567,2079.4011 733.60286,2102.8626 763.91752,2107.5464 763.91752,2078.6804 763.91752,2049.8145 745.37291,1719.5539 746.39175,1688.9897 747.25838,1662.9916 768.04124,1650.8454 773.19587,1686.9279 774.48259,1695.9348 795.87629,2046.7217 797.93815,2074.5567 800,2102.3918 836.08248,2093.1134 836.08248,2071.4639 836.08248,2049.8144 814.43299,1713.732 813.40206,1681.7732 812.37113,1649.8144 842.26804,1646.7216 844.3299,1686.5361 844.3299,1686.5361 869.07217,2050.0619 871.13403,2077.8969 873.19588,2105.732 909.27836,2096.4536 909.27836,2074.8041 909.27836,2053.1546 888.04487,1713.9633 886.59794,1682.0206 884.49431,1635.5805 916.49381,1642.479 917.52578,1683.0515 918.44475,1719.1811 940.67605,2069.9118 941.23712,2082.5361 942.26804,2105.732 978.35052,2096.4536 978.35052,2074.8041 978.35052,2053.1546 958.50446,1696.3445 955.6701,1664.4949 953.58678,1641.0847 978.1322,1629.2191 986.08247,1665.6965 992.43338,1694.8357 1009.2784,2049.3723 1011.3402,2077.2073 1013.4021,2105.0424 1049.4845,2095.764 1049.4845,2074.1145 1049.4845,2052.465 1029.897,1687.5166 1028.866,1655.5578 1027.8351,1623.599 1059.7938,1628.0423 1060.8248,1647.9496 1061.8557,1667.8568 1082.4742,2052.7125 1084.5361,2080.5475 1086.5979,2108.3826 1122.6804,2099.1042 1122.6804,2077.4547 1122.6804,2055.8052 1103.674,1690.8328 1102.0619,1658.898 1099.9712,1617.4851 1129.8854,1619.1402 1130.9278,1656.8361 1131.9269,1692.9636 1154.0781,2072.5624 1154.6392,2085.1867 1155.6701,2108.3826 1191.7526,2099.1042 1191.7526,2077.4547 1191.7526,2055.8052 1173.1527,1685.7036 1172.165,1653.7434 1170.8089,1609.863 1204.9586,1617.7421 1205.1547,1654.6506 1205.3507,1691.5591 1221.6495,2051.4341 1223.7113,2079.2691 1225.7732,2107.1042 1261.8557,2097.8258 1261.8557,2076.1763 1261.8557,2054.5268 1242.9104,1679.1917 1245.3609,1647.3103 1248.8522,1601.8873 1277.2407,1624.9025 1275.2577,1650.0114 1273.2748,1675.1203 1294.8454,2054.7743 1296.9073,2082.6093 1298.9691,2110.4444 1335.0516,2101.166 1335.0516,2079.5165 1335.0516,2057.867 1320.6653,1680.4945 1318.5568,1648.5887 1315.7148,1605.585 1348.9795,1615.4821 1349.4846,1649.6196 1350.0192,1685.7569 1366.4493,2074.6242 1367.0104,2087.2485 1368.0413,2110.4444 1404.1238,2101.166 1404.1238,2079.5165 1404.1238,2057.867 1388.1261,1670.2166 1389.6907,1638.2795 1391.7039,1597.1884 1420.7392,1610.7938 1420.1032,1641.2485 1419.4672,1671.7033 1439.1752,2049.3723 1441.2371,2077.2073 1443.299,2105.0424 1479.3814,2095.764 1479.3814,2074.1145 1479.3814,2052.465 1463.9175,1666.8981 1462.8866,1634.9393 1461.8557,1602.9805 1495.8763,1606.3929 1493.8145,1639.7022 1491.7527,1673.0114 1512.3711,2052.7125 1514.433,2080.5475 1516.4948,2108.3826 1552.5773,2099.1042 1552.5773,2077.4547 1552.5773,2055.8052 1537.8687,1669.215 1537.1134,1637.2485 1536.2478,1600.6115 1569.5537,1607.8129 1569.0721,1639.3104 1568.5196,1675.4475 1583.975,2072.5624 1584.5361,2085.1867 1585.567,2108.3826 1621.6495,2099.1042 1621.6495,2077.4547 1621.6495,2055.8052 1615.4639,1670.2383 1614.433,1638.2795 1613.402,1606.3206 1650.947,1596.253 1647.1872,1646.3234 1643.9695,1689.1751 1653.1721,2050.6105 1655.2339,2078.4455 1657.2958,2106.2806 1690.6586,2103.8013 1690.6586,2082.1518 1690.6586,2060.5023 1687.3889,1681.9557 1686.3579,1649.9969 1685.327,1618.0381 1717.2857,1622.4814 1718.3167,1642.3887 1719.3476,1662.2959 1726.3679,2053.9507 1728.4298,2081.7857 1730.4916,2109.6208 1766.5741,2100.3424 1766.5741,2078.6929 1766.5741,2057.0434 1762.5257,1694.7906 1760.9136,1662.8558 1758.8229,1621.4429 1788.7371,1623.098 1789.7795,1660.7939 1790.7786,1696.9214 1797.9718,2073.8006 1798.5329,2086.4249 1799.5638,2109.6208 1835.6463,2100.3424 1835.6463,2078.6929 1835.6463,2057.0434 1834.7241,1695.1007 1833.7364,1663.1405 1832.3803,1619.2601 1866.53,1627.1392 1866.7261,1664.0477 1866.9221,1700.9562 1872.3423,2049.9527 1874.4041,2077.7877 1876.466,2105.6228 1912.5485,2096.3444 1912.5485,2074.6949 1912.5485,2053.0454 1904.4818,1700.8272 1906.9323,1668.9458 1910.4236,1623.5228 1938.8121,1646.538 1936.8291,1671.6469 1934.8462,1696.7558 1944.1784,2051.933 1946.2403,2079.768 1948.3021,2107.6031 1984.3846,2098.3247 1984.3846,2076.6752 1984.3846,2055.0257 1981.4772,1711.7183 1981.488,1679.743 1981.5006,1642.4485 2012.314,1647.443 2012.4158,1680.7739 2012.5262,1716.9149 2026.6609,2063.624 2027.2219,2076.2483 2028.2528,2099.4442 2060.2559,2092.8855 2060.2559,2071.236 2060.2559,2049.5865 2053.7769,1724.4878 2055.3415,1692.5507 2057.3547,1651.4596 2086.39,1665.065 2085.754,1695.5197 2085.118,1725.9745 2096.6671,2050.6105 2098.729,2078.4455 2100.7909,2106.2806 2136.8733,2097.0022 2136.8733,2075.3527 2136.8733,2053.7032 2133.6478,1738.847 2132.6169,1706.8882 2131.586,1674.9294 2161.5271,1672.9025 2159.4653,1706.2118 2157.4035,1739.521 2167.1434,2051.2311 2169.2053,2079.0661 2171.2671,2106.9012 2207.3496,2097.6228 2207.3496,2075.9733 2207.3496,2054.3238 2207.599,1760.2014 2206.8437,1728.2349 2205.9781,1691.5979 2239.284,1698.7993 2238.8024,1730.2968 2238.2499,1766.4339 2244.1865,2061.5622 2244.7476,2074.1865 2245.7785,2097.3824 2280.5012,2094.9031 2280.5012,2073.2536 2280.5012,2051.6041 2281.1147,1755.7854 2280.0838,1723.8266 2279.0528,1691.8677 2297.5156,1687.3564 2297.4134,1723.4977 L 2296.4016,2081.2933 C 2296.3345,2105.0136 2323.2696,2097.8905 2321.675,2077.8453 2319.731,2053.4081 2322.0288,1728.7192 2324.7643,1706.7712 2327.4999,1684.8231 2342.9106,1678.7858 2340.1815,1703.4918 2337.4525,1728.1977 2330.6266,2047.9851 2329.9229,2080.4889 2329.4244,2103.5116 2351.594,2101.2766 2352.9538,2076.7998 2354.3136,2052.3231 2359.3928,1711.3197 2362.0886,1689.3445 2364.7844,1667.3693 2378.0681,1663.9086 2375.394,1688.5288 2372.7201,1713.1488 2372.6999,2047.0331 2369.2005,2080.6253 2366.6666,2104.9487 2392.7027,2106.1595 2394.0625,2081.6827 2395.4223,2057.206 2391.8605,1706.8506 2394.4958,1685.1178 2397.1312,1663.385 2412.4001,1660.0873 2409.7864,1684.3953 2407.1728,1708.7031 2409.9783,2048.6562 2409.2746,2081.16 2408.7761,2104.1827 2433.8304,2104.8323 2435.1902,2080.3555 2436.55,2055.8788 2436.2308,1701.5186 2438.8166,1680.2138 2441.4024,1658.9091 2454.6047,1655.8113 2452.0331,1679.6429 2449.4616,1703.4744 2456.7582,2043.5266 2451.8718,2077.2257 2448.3078,2101.8051 2473.4878,2104.2935 2474.8476,2079.8167 2476.2074,2055.34 2475.1365,1694.5578 2477.7304,1673.4813 2480.3243,1652.4047 2495.6173,1650.309 2493.0169,1674.009 2490.4164,1697.7089 2487.6454,2043.2258 2486.9417,2075.7296 2486.4432,2098.7523 2505.7283,2101.325 2507.0881,2076.8482 2508.4479,2052.3715 2515.169,1690.7264 2517.8134,1669.6235 2520.4581,1648.5206 2533.7906,1646.712 2531.1354,1670.4925 2528.4802,1694.2728 2529.0693,2039.0072 2524.5636,2078.215 2521.2772,2106.8127 2549.7757,2096.1998 2548.1811,2076.1546 2546.2371,2051.7174 2557.1888,1681.8361 2559.9243,1659.8881 2562.6599,1637.94 2578.1154,1635.7489 2575.3777,1660.4549 2572.6402,1685.1608 2560.0173,2048.2174 2559.3136,2080.7212 2558.8151,2103.7439 2583.8694,2104.3935 2585.2292,2079.9167 2586.589,2055.44 2599.5858,1680.7828 2602.3215,1658.8076 2605.0572,1636.8324 2618.5403,1633.3717 2615.8121,1657.9919 2613.084,1682.6119 2603.0522,2045.3423 2599.5528,2078.9345 2597.0189,2103.2579 2623.055,2104.4687 2624.4148,2079.9919 2625.7746,2055.5152 2632.5335,1676.3137 2635.2478,1654.5809 2637.9622,1632.8481 2653.545,1629.5504 2650.8438,1653.8584 2648.1428,1678.1662 2643.2152,2046.0039 2642.5115,2078.5077 2642.013,2101.5304 2667.0673,2102.18 2668.4271,2077.7032 2669.7869,2053.2265 2677.8173,1670.9817 2680.495,1649.6769 2683.1728,1628.3722 2696.6426,1625.2744 2693.9823,1649.106 2691.3222,1672.9375 2687.1105,2041.8358 2682.2241,2075.5349 2678.6601,2100.1143 2703.8401,2102.6027 2705.1999,2078.1259 2706.5597,2053.6492 2717.4796,1668.8285 2720.1377,1647.752 2722.7959,1626.6754 2738.2797,1624.5797 2735.6307,1648.2797 2732.9817,1671.9796 2717.9977,2041.535 2717.294,2074.0388 2716.7955,2097.0615 2741.8498,2097.7111 2743.2096,2073.2343 2744.5694,2048.7576 2759.9022,1669.8048 2762.562,1648.7019 2765.222,1627.599 2778.566,1625.7904 2775.9108,1649.5709 2773.2556,1673.3512 2760.0711,2037.6983 2756.5717,2071.2905 2754.0378,2095.6139 2779.1125,2099.7093 2780.4723,2075.2325 2781.8321,2050.7558 2797.1879,1665.6322 2799.9001,1643.9589 2802.6124,1622.2857 2817.9357,1621.6994 2815.216,1646.1762 2812.4964,1670.6529 2798.3111,2044.1292 2797.6074,2076.633 2797.1089,2099.6557 2822.1632,2100.3053 2823.523,2075.8285 2824.8828,2051.3518 2838.7245,1670.1805 2841.4441,1648.4234 2844.1638,1626.6663 2857.5393,1625.353 2854.7957,1649.8898 2852.0521,1674.4264 2839.0177,2038.8404 2837.7488,2074.9809 2837.0402,2095.1635 2863.1462,2096.878 2861.5516,2076.8328 2859.6076,2052.3956 2877.3409,1669.6793 2880.0981,1647.8284 2882.8553,1625.9774 2898.6615,1624.3667 2895.884,1648.9879 2893.1066,1673.6091 2876.2725,2041.2033 2875.5688,2073.7071 2875.0703,2096.7298 2900.1246,2097.3794 2901.4844,2072.9026 2902.8442,2048.4259 2921.3522,1668.8352 2924.0708,1647.0805 2926.7896,1625.3258 2940.1426,1624.0685 2937.4229,1648.5453 2934.7033,1673.022 2918.3459,2038.3282 2914.8465,2071.9204 2912.3126,2096.2438 2938.3487,2097.4546 2939.7085,2072.9778 2941.0683,2048.5011 2955.7065,1664.9002 2958.4261,1643.1431 2961.1458,1621.386 2979.3517,1622.6417 2976.7244,1645.8247 2974.0972,1669.0075 2959.4704,2037.0667 2958.7667,2069.5705 2958.2682,2092.5932 2979.4764,2099.012 2980.8362,2074.5352 2982.196,2050.0585 3002.0684,1662.4014 3004.6913,1641.9979 3007.3143,1621.5944 3022.8518,1619.4341 3020.2791,1641.8524 3017.7065,1664.2706 3001.4427,2035.7832 2996.5563,2069.4823 2992.9923,2094.0617 3018.1723,2096.5501 3019.5321,2072.0733 3020.8919,2047.5966 3038.0712,1665.5577 3040.7808,1643.9403 3043.4906,1622.3228 3058.9186,1620.1615 3056.1989,1644.6383 3053.4793,1669.115 3031.3683,2038.367 3030.6646,2070.8708 3030.1661,2093.8935 3055.2204,2094.5431 3056.5802,2070.0663 3057.94,2045.5896 3077.2693,1670.1675 3079.9889,1648.4104 3082.7086,1626.6533 3096.7196,1625.2225 3093.8248,1649.7414 3090.9302,1674.2601 3079.2109,2033.5688 3075.7115,2067.161 3073.1776,2091.4844 3099.2138,2092.6952 3100.5736,2068.2184 3101.9334,2043.7417 3117.4119,1670.628 3120.2258,1648.8722 3123.0397,1627.1164 3138.9986,1625.4391 3136.2789,1649.8702 3133.5593,1674.3011 3110.7202,2036.1535 3110.0165,2068.6573 3109.518,2091.68 3134.5723,2092.3296 3135.9321,2067.8528 3137.2919,2043.3761 3161.3785,1674.5292 3163.9836,1652.803 3166.5887,1631.0768 3178.7239,1630.111 3176.0374,1654.5795 3173.3509,1679.0479 3151.8373,2033.736 3148.7883,2069.0867 3147.1206,2088.4232 3173.7778,2091.1422 3172.1832,2071.097 3170.2392,2046.6598 3203.6825,1676.111 3206.4021,1654.3539 3209.1218,1632.5968 3224.4197,1632.2568 3221.7,1656.7336 3218.9804,1681.2103 3186.9041,2036.4291 3186.2004,2068.9329 3185.7019,2091.9556 3210.7562,2092.6052 3212.116,2068.1284 3213.4758,2043.6517 3245.5384,1681.1363 3248.258,1659.3792 3250.9777,1637.6221 3264.2358,1636.6022 3261.5161,1661.079 3258.7965,1685.5557 3229.939,2033.554 3226.4396,2067.1462 3223.9057,2091.4696 3249.9418,2092.6804 3251.3016,2068.2036 3252.6614,2043.7269 3277.8766,1683.203 3280.5962,1661.4459 3283.3159,1639.6888 3298.6138,1639.3488 3295.8941,1663.8256 3293.1745,1688.3023 3270.102,2034.2156 3269.3983,2066.7194 3268.8998,2089.7421 3293.9541,2090.3917 3295.3139,2065.9149 3296.6737,2041.4382 3322.2871,1686.8685 3325.0067,1665.1114 3327.7264,1643.3543 3340.9846,1642.3344 3338.2649,1666.8112 3335.5453,1691.2879 3313.9973,2030.0475 3309.1109,2063.7466 3305.5469,2088.326 3330.7269,2090.8144 3332.0867,2066.3376 3333.4465,2041.8609 3361.3129,1690.9723 3364.0325,1669.2152 3366.7522,1647.4581 3382.0501,1647.1181 3379.3304,1671.5949 3376.6108,1696.0716 3346.8076,2031.6697 3346.1039,2064.1735 3345.6054,2087.1962 3370.6597,2087.8458 3372.0195,2063.369 3373.3793,2038.8923 3403.2854,1696.1626 3406.005,1674.4055 3408.7247,1652.6484 3421.9829,1651.6285 3419.2632,1676.1053 3416.5436,1700.582 3397.5348,2026.8715 3394.0354,2060.4637 3391.5015,2084.7871 3416.5762,2088.8825 3417.936,2064.4057 3419.2958,2039.929 3438.5084,1706.6499 3441.228,1684.8928 3443.9477,1663.1357 3459.2456,1662.7957 3456.5259,1687.2725 3453.8063,1711.7492 3430.0056,2029.4562 3429.3019,2061.96 3428.8034,2084.9827 3453.8577,2085.6323 3455.2175,2061.1555 3456.5773,2036.6788 3483.8805,1713.2 3486.6001,1691.4429 3489.3198,1669.6858 3502.578,1668.6659 3499.8583,1693.1427 3497.1387,1717.6194 3470.7122,2031.8598 3469.4433,2068.0003 3468.7347,2088.1829 3493.8792,2072.5897 3492.2846,2052.5445 3490.3406,2028.1073 3521.8608,1714.2892 3524.5804,1692.5321 3527.3001,1670.775 3542.598,1670.435 3539.8783,1694.9118 3537.1587,1719.3885 3508.9286,2031.3381 3508.2249,2063.8419 3507.7264,2086.8646 3532.7807,2087.5142 3534.1405,2063.0374 3535.5003,2038.5607 3564.6782,1716.4298 3567.3978,1694.6727 3570.1175,1672.9156 3583.3756,1671.8957 3580.6559,1696.3725 3577.9363,1720.8492 3551.9635,2028.463 3548.4641,2062.0552 3545.9302,2086.3786 3571.9663,2087.5894 3573.3261,2063.1126 3574.6859,2038.6359 3601.8241,1723.3042 3604.5437,1701.5471 3607.2634,1679.79 3622.5613,1679.45 3619.8416,1703.9268 3617.122,1728.4035 3592.1265,2029.1246 3591.4228,2061.6284 3590.9243,2084.6511 3615.9786,2085.3007 3617.3384,2060.8239 3618.6982,2036.3472 3644.3116,1741.3928 3647.0312,1719.6357 3649.7509,1697.8786 3663.0091,1696.8587 3660.2894,1721.3355 3657.5698,1745.8122 3636.0218,2024.9565 3631.1354,2058.6556 3627.5714,2083.235 3652.7514,2085.7234 3654.1112,2061.2466 3655.471,2036.7699 3677.5682,1752.2274 3680.2878,1730.4703 3683.0075,1708.7132 3698.3054,1708.3732 3695.5857,1732.85 3692.8661,1757.3267 3668.8321,2026.5787 3668.1284,2059.0825 3667.6299,2082.1052 3692.6842,2082.7548 3694.044,2058.278 3695.4038,2033.8013 3719.5407,1757.4177 3722.2603,1735.6606 3724.98,1713.9035 3738.2382,1712.8836 3735.5185,1737.3604 3732.7989,1761.8371 3711.867,2023.7036 3708.3676,2057.2958 3705.8337,2081.6192 3731.8699,2082.83 3733.2297,2058.3532 3734.5895,2033.8765 3756.6867,1760.2126 3759.4063,1738.4555 3762.126,1716.6984 3777.4239,1716.3584 3774.7042,1740.8352 3771.9846,1765.3119 3752.0301,2024.3652 3751.3264,2056.869 3750.8279,2079.8917 3775.8822,2080.5413 3777.242,2056.0645 3778.6018,2031.5878 3802.0588,1766.7627 3804.7784,1745.0056 3807.4981,1723.2485 3820.7563,1722.2286 3818.0366,1746.7054 3815.317,1771.1821 3796.8794,1998.7668 3791.9767,2066.2632 3791.2433,2076.3608 3812.0253,2079.4828 3822.3462,2065.8385 z"
     id="path3384"
     inkscape:connector-curvature="0"
     sodipodi:nodetypes="zcsssssssssssscsssssssssssssssssssssssssssssssssssssssssssssssssssssssssssssssssssssssssssssssssssssssssssssssssssssssssssssssssssssssssssssssssssssssssssssssssssssssssssssssssssssssssssssssssssssssssssssssssssssssssssssssssssssssssssssssssssssssssz" />
  <path
     style="fill:url(#radialGradient4309);fill-opacity:1;stroke:#000000;stroke-width:1px;stroke-linecap:butt;stroke-linejoin:miter;stroke-opacity:1;filter:url(#filter4363)"
     d="M 905.53288,1490.6154 C 1114.8785,1452.7372 1584.6154,1415.6154 2030.7692,1423.3077 2476.9231,1431 2992.8878,1560.2776 3127.7718,1632.2646 2994.5988,1648.6107 2299.3984,1442.1795 1957.0907,1447.9487 1614.783,1453.718 1123.1104,1516.1087 905.53288,1490.6154 z"
     id="path3522"
     inkscape:connector-curvature="0"
     sodipodi:nodetypes="cscsc"
     transform="matrix(1.4471409,0,0,0.67834152,-684.31627,479.46907)" />
  <g
     inkscape:groupmode="layer"
     id="layer1"
     inkscape:label="Reference Image"
     style="opacity:0.34027782;display:none">
    <image
       width="4608"
       height="3456"
       xlink:href="file:///C:/Users/Trev/Projects/mm-ripoff/application/assets/reference-images/DSC04829.JPG"
       id="image2993"
       x="0"
       y="0" />
  </g>
  <g
     inkscape:groupmode="layer"
     id="layer2"
     inkscape:label="Sketch"
     style="display:inline" />
</svg>
